<svg id="ëÎÓÈ_1" data-name="ëÎÓÈ 1" xmlns="http://www.w3.org/2000/svg" viewBox="0 0 800 800"><defs><style>.cls-1{fill:#22222d;}</style></defs><path class="cls-1" d="M490.26,450.67a10.63,10.63,0,0,1-.26,8.7,36.27,36.27,0,0,1-5.13,8.36,57.84,57.84,0,0,1-8.88,8.7,10.06,10.06,0,0,0-3-4.87,28.29,28.29,0,0,0-6.35-4.44,61.21,61.21,0,0,0-12.1-4.62,144.71,144.71,0,0,0-21.42-3.83,285.74,285.74,0,0,0-32.37-1.56q-19,0-43.52,2.09t-55,7q-28.22,4.53-49.88,7.14t-37.95.69q-16.27-1.92-27.76-9.83t-19.15-24.29a86,86,0,0,1-3.83-9.4q-1.74-5-3.92-10a56.74,56.74,0,0,0-5.31-9.48,34.14,34.14,0,0,0-7.83-8q-4.71,6.78-9.75,13.14a128.23,128.23,0,0,1-10.45,11.67,81.7,81.7,0,0,1-11,9.13,37.6,37.6,0,0,1-11.15,5.4,17.85,17.85,0,0,1-5.65.78,15.08,15.08,0,0,1-5-.95,16.8,16.8,0,0,1-4.1-2.27,33.42,33.42,0,0,1-3.39-3A36.13,36.13,0,0,1,80.13,428a23.69,23.69,0,0,0,11.05.17,34.2,34.2,0,0,0,11.58-5.13A71.55,71.55,0,0,0,115,412.37a160.5,160.5,0,0,0,13.49-16.89,72.6,72.6,0,0,0-13.14-1.21,113.42,113.42,0,0,0-11.58.52q-5.91.69-11.49,1.74,11.32-9,22.46-11.32a62.24,62.24,0,0,1,21.06-.87q4.35-7,9.32-15.4t9.92-17q5-8.52,9.57-16.27t8.27-13.49A97.93,97.93,0,0,0,151.24,329a111.65,111.65,0,0,0-18.19,10.28,96.11,96.11,0,0,0-14.36,12.18,81.66,81.66,0,0,0-10.1,12.62,46.26,46.26,0,0,0-5.48,11.49q-1.58,5.31-.35,8.62-9.58-2.26-15.32-6.44a22.19,22.19,0,0,1-4.35-4.09,13,13,0,0,1-2.61-5.23,13.83,13.83,0,0,1,.17-6.52,23.35,23.35,0,0,1,4-8A63.43,63.43,0,0,1,95.8,342.13a129.58,129.58,0,0,1,15-10.71A152.37,152.37,0,0,1,128,322.28q9-4.08,17.93-7.22T163,309.92a94.73,94.73,0,0,1,14.8-2.52,76.78,76.78,0,0,1,15.58.17,85.77,85.77,0,0,1,11.92,2.27,60.9,60.9,0,0,1,10.45,3.83q-2.44,6.43-5.4,15.31-2.44,7.66-5.66,18.81t-6.53,26.11q-6.43,28.55-5,46.82T201.9,449a33.14,33.14,0,0,0,19.93,12.89q12.54,2.87,28.55.43,13.58-1.92,24.28-4.09t20.46-4.35q9.75-2.19,19.67-4.35t21.93-4.1q12-1.9,27.07-3.56T399,439q19.33-1.22,35.34-1.13a238.15,238.15,0,0,1,27.86,1.57,83,83,0,0,1,19.06,4.26Q488.52,446.49,490.26,450.67ZM153.94,389.56a31.54,31.54,0,0,1,9,5.58,67.53,67.53,0,0,1,6.71,6.78,74.46,74.46,0,0,1,5.57,8.19,42.5,42.5,0,0,1-1.05-9.93,113.55,113.55,0,0,1,.61-11.57q.62-6,1.65-12.28t2.44-12.18q3.13-13.57,7.49-28.2c-1.16,2.2-2.94,5.31-5.31,9.31s-5.08,8.47-8.1,13.41l-9.48,15.49Q158.47,382.26,153.94,389.56Z"/><path class="cls-1" d="M332.89,397.92a2.79,2.79,0,0,1,1.39,0,7.37,7.37,0,0,1,2.18.78,6.85,6.85,0,0,1,2,1.66,3.68,3.68,0,0,1,.87,2.43,11.42,11.42,0,0,1-1.65,3.83,71,71,0,0,1-4.44,6.79,90.66,90.66,0,0,1-6.44,7.84,61.09,61.09,0,0,1-7.83,7.22,36.89,36.89,0,0,1-8.71,5,14.8,14.8,0,0,1-8.7,1q-7.14-1.39-9.58-7.49a33.34,33.34,0,0,1-1.83-14.71,88.35,88.35,0,0,1,3.57-18.62q3-10,6.62-19.24a203.56,203.56,0,0,0-15.67,22.11q-6.8,11.14-11.31,20.36-5.4,10.8-9.23,20.72-7.49,0-12.36-3.65a17.43,17.43,0,0,1-3.83-4.1,20.94,20.94,0,0,1-2.79-6.26,31.93,31.93,0,0,1-1-9,63.54,63.54,0,0,1,1.65-12.36A145.52,145.52,0,0,1,250,387.21q2.43-7.21,4.52-12.79a189.25,189.25,0,0,0-15.05,21.32q-6.7,11.07-11.41,20.46a231.53,231.53,0,0,0-9.74,21.41q-6.79,1-11.32-2.09a12.86,12.86,0,0,1-3.57-3.57,17.36,17.36,0,0,1-2.52-6,33.79,33.79,0,0,1-.7-8.79A70.39,70.39,0,0,1,202,404.88q.69-3.13,2-8.61t3-11.67c1.11-4.11,2.32-8.21,3.66-12.27a77.12,77.12,0,0,1,4.09-10.27q2.43-4.87,4.27-8.1a9.69,9.69,0,0,1,4.87-4.43q3-1.21,7.92-.09a84.79,84.79,0,0,1,13.58,5q-3.84,6.45-7.14,13.4-3,5.93-5.83,13.06a80.6,80.6,0,0,0-4.27,13.93q5.58-10.1,9.84-16.8t7.75-11.32a83,83,0,0,1,6.52-7.74c2-2.09,4.1-4.12,6.18-6.1a13,13,0,0,1,4.44-2.35,21.62,21.62,0,0,1,6.18-1,28.55,28.55,0,0,1,6.62.61,14.26,14.26,0,0,1,5.74,2.52,9.92,9.92,0,0,1,3.48,4.88,12.44,12.44,0,0,1-.17,7.4,43.07,43.07,0,0,1-2.52,7.39q-1.48,3.22-3,6.53t-2.87,7.05a57.59,57.59,0,0,0-2.44,9,204.22,204.22,0,0,1,16.19-26.38q7.83-10.53,14.45-16.1c1.27-1,3.53-1.83,6.79-2.35a27,27,0,0,1,9.66.18,15,15,0,0,1,7.92,4.09q3.14,3.12,1.74,9.4a54.39,54.39,0,0,1-3.57,10.79q-2.35,5.22-5.14,10.62t-5.39,11.14a78.36,78.36,0,0,0-4.35,12.19,28.5,28.5,0,0,0-1.22,6.87c0,1.57.29,2.59.87,3.05a2.62,2.62,0,0,0,2.43.26,9,9,0,0,0,3.14-1.66c1-.81,2.09-1.71,3.13-2.69a35,35,0,0,0,2.61-2.7,67.41,67.41,0,0,0,7.23-10Q332,398.27,332.89,397.92Z"/><path class="cls-1" d="M369.62,397.75a2.57,2.57,0,0,1,1.39,0,6.85,6.85,0,0,1,2.18.78,7,7,0,0,1,2,1.65,3.7,3.7,0,0,1,.87,2.44,11.51,11.51,0,0,1-1.65,3.83,72.23,72.23,0,0,1-4.44,6.79q-2.79,3.83-6.44,7.92a57.27,57.27,0,0,1-7.84,7.31,34.32,34.32,0,0,1-8.7,5,15.23,15.23,0,0,1-8.7.87,12.37,12.37,0,0,1-9.75-7.92q-2.61-6.53-1.39-16.8a124.4,124.4,0,0,1,5.65-23.76A265,265,0,0,1,344.38,357a17.87,17.87,0,0,1,4.26-6,9.35,9.35,0,0,1,5.75-2.18,22.78,22.78,0,0,1,7.83,1.22,92.63,92.63,0,0,1,10.53,4.18q-5.38,10.62-10.09,20.54c-1.39,2.78-2.79,5.72-4.18,8.79s-2.7,6.06-3.92,9-2.32,5.72-3.3,8.45-1.78,5.13-2.35,7.22q-1.92,6.8-1,8.88a2.23,2.23,0,0,0,3,1.39,14.49,14.49,0,0,0,4.7-3,33.45,33.45,0,0,0,4.18-4.18,66.89,66.89,0,0,0,7.23-10Q368.75,398.1,369.62,397.75ZM371,305.83a18.87,18.87,0,0,1,12,2.61,16.46,16.46,0,0,1,3.65,3.31,11,11,0,0,0-2.17,3.22c-.88,1.68-1.81,3.69-2.79,6s-2,4.76-3,7.31-1.91,4.93-2.78,7.14-1.66,4.06-2.35,5.57a7.72,7.72,0,0,1-1.4,2.43,8.58,8.58,0,0,1-3.22-.61,53,53,0,0,1-5.83-2.09,38.82,38.82,0,0,1-5.66-2.87c-1.68-1-2.64-2-2.87-3a7.69,7.69,0,0,1,.78-3.39q1-2.52,2.53-5.75c1-2.14,2.23-4.38,3.57-6.7s2.63-4.46,3.91-6.44,2.41-3.6,3.4-4.87S370.55,305.83,371,305.83Z"/><path class="cls-1" d="M467.8,402.79a7.81,7.81,0,0,1-.87,2.35q-.87,1.83-2.61,4.7c-1.16,1.92-2.56,4.07-4.18,6.45a69.37,69.37,0,0,1-5.74,7.22q-5.58,6.44-8.54,9.57c-1.27,1.28-2.32,2.38-3.13,3.31a71.24,71.24,0,0,0-15-3.83,101.61,101.61,0,0,0-16.19-.52,69.35,69.35,0,0,0-19.84,4q-5.24,2.44-8.53,1a6.46,6.46,0,0,1-2.62-2,10.77,10.77,0,0,1-1.91-4.18,25.23,25.23,0,0,1-.61-6.79,59.59,59.59,0,0,1,1.31-10.18,193.74,193.74,0,0,1,12.88-16.89,181.12,181.12,0,0,1,14.19-14.36,86.58,86.58,0,0,1,17.49-12.45c.81-.46.29-.69-1.57-.69-.81,0-1.94,0-3.39.08s-3.34.21-5.66.44-5.19.55-8.62.95L392.6,372.5q-7.85,14.12-12.1,22.72T375,405.58a2.93,2.93,0,0,1-2.43,1.48,11.5,11.5,0,0,1-3.14-.26,16.21,16.21,0,0,1-3.83-1.22q6.09-13.75,10.8-24.55,2.08-4.69,4-9.13t3.48-8q1.58-3.57,2.61-5.83c.7-1.51,1.1-2.38,1.22-2.62a17.25,17.25,0,0,1,4-4.52,9,9,0,0,1,5.57-1.57q13.92-.69,25.76-.52,5,0,10.1.26c3.36.17,6.49.41,9.4.7a74.07,74.07,0,0,1,7.66,1.13,14.27,14.27,0,0,1,4.87,1.74,6.37,6.37,0,0,1,3.14,4,10.47,10.47,0,0,1-.35,5.84q-1,3.57-5.57,8.61c-.59.7-3.08,2-7.49,3.83a122,122,0,0,0-15.14,7.92,109.54,109.54,0,0,0-17,12.8,51.85,51.85,0,0,0-13,18.28,141.56,141.56,0,0,1,19.5-5.05c2.67-.47,5.45-.84,8.36-1.13a53.11,53.11,0,0,1,8.53-.18,46.55,46.55,0,0,1,8.09,1.22,24.91,24.91,0,0,1,7.05,2.87,62.35,62.35,0,0,0,6.79-9.48q2.26-4.1,3-4.44a2.65,2.65,0,0,1,1.48.08,11.3,11.3,0,0,1,2.35.87,6.48,6.48,0,0,1,2.09,1.66A3.68,3.68,0,0,1,467.8,402.79Z"/><path class="cls-1" d="M544.22,397.92a3.13,3.13,0,0,1,1.48,0,6.21,6.21,0,0,1,2.26.87,9.46,9.46,0,0,1,2,1.65,3.38,3.38,0,0,1,.87,2.35,12.08,12.08,0,0,1-1.65,3.92,56.84,56.84,0,0,1-4.44,6.79q-2.79,3.75-6.44,7.83a58.51,58.51,0,0,1-7.83,7.32,36.84,36.84,0,0,1-8.71,5,14.8,14.8,0,0,1-8.7,1,12.42,12.42,0,0,1-8.1-5.4q-2.7-4.17-3-11a70.61,70.61,0,0,1-5.83,7.4,48.52,48.52,0,0,1-7.23,6.52,21,21,0,0,1-11.4,4,19.59,19.59,0,0,1-11.75-3.05q-5.4-3.39-8.44-11t-1.48-19.93a75.22,75.22,0,0,1,6.09-22,63.91,63.91,0,0,1,11-16.8,48.28,48.28,0,0,1,14.27-10.79,35.45,35.45,0,0,1,15.67-3.83,22.77,22.77,0,0,1,10.27,2.26A17.63,17.63,0,0,1,519.5,356q2.79-4.53,5.83-5.92a11.62,11.62,0,0,1,6.44-1,28.16,28.16,0,0,1,7.31,2.09c2.62,1.1,5.43,2.24,8.45,3.39q-5.74,11-10.45,21.07Q535,380,532.9,384.52T529,393.39c-1.22,2.91-2.33,5.66-3.31,8.27a57.11,57.11,0,0,0-2.18,6.88q-1.74,6.79-.78,8.79a2.39,2.39,0,0,0,3.13,1.39,11.88,11.88,0,0,0,4.7-3,43.41,43.41,0,0,0,4.1-4.26,71.12,71.12,0,0,0,7.22-9.92A14,14,0,0,1,544.22,397.92Zm-44.74,6.27c1.39-2.67,2.5-4.88,3.31-6.62s1.51-3.25,2.09-4.52,1.07-2.38,1.48-3.31a29.46,29.46,0,0,0,1.13-3.13c.23-.58.7-1.92,1.39-4s1.48-4.32,2.35-6.7,1.68-4.64,2.44-6.79a42.36,42.36,0,0,1,1.65-4.26,12.24,12.24,0,0,0-3.91-2.79,8.15,8.15,0,0,0-6.1-.09q-3.57,1.14-8,5.66t-9.67,14.45q-6.25,11.49-6.7,19.32t2.44,11.06q2.87,3.21,7.48,1.39T499.48,404.19Z"/><path class="cls-1" d="M633.7,397.92a3.13,3.13,0,0,1,1.48,0,6.28,6.28,0,0,1,2.26.87,8.12,8.12,0,0,1,1.92,1.65,3.62,3.62,0,0,1,.78,2.35,11.67,11.67,0,0,1-1.57,3.83,59.1,59.1,0,0,1-4.26,6.71,98.06,98.06,0,0,1-6.36,7.83,60.26,60.26,0,0,1-7.74,7.31,35.86,35.86,0,0,1-8.53,5,15.54,15.54,0,0,1-8.62,1.13q-8.71-1.39-12-9.23a23.5,23.5,0,0,1-1.92-5.57,29.43,29.43,0,0,1-.52-7.48A104.21,104.21,0,0,1,581,423.25a58.83,58.83,0,0,1-8.79,9A19.94,19.94,0,0,1,561,436.48a18.1,18.1,0,0,1-11.66-3.13q-5.33-3.57-8.45-11.15t-1.56-19.93a69.48,69.48,0,0,1,18.1-39,54.29,54.29,0,0,1,13.84-10.79c4.81-2.56,9.25-3.77,13.32-3.66a25.38,25.38,0,0,1,10.79,2.7,20,20,0,0,1,6.79,5.66q2.77-8,5.83-15.93t5.66-14.19q2.61-6.27,4.44-10.36t2.17-4.61q3-5.75,5.83-8a9.92,9.92,0,0,1,6.27-2.26,21.53,21.53,0,0,1,7.66,1.65q4.26,1.66,10,3.92-8.7,15.32-16.19,32.2-6.43,14.63-12.79,32.73a219.73,219.73,0,0,0-9.49,37.08q-1.05,6.27.26,8.18a2.8,2.8,0,0,0,3.48,1.22,13.43,13.43,0,0,0,4.7-3,38.26,38.26,0,0,0,4.09-4.18q5.58-6.78,7.14-10T633.7,397.92Zm-62-16a51.72,51.72,0,0,0-5,16c-.59,4.87-.35,8.59.69,11.14s2.79,3.6,5.22,3.13,5.28-3.13,8.53-8a114.77,114.77,0,0,0,6.53-11.49q3.23-6.43,5.66-12,3-6.62,5.4-13.23A18.5,18.5,0,0,0,597.4,365a8.93,8.93,0,0,0-2.61-2.7,7.34,7.34,0,0,0-3.92-1.22,9.33,9.33,0,0,0-5.22,1.83,28.46,28.46,0,0,0-6.44,6.35A72.92,72.92,0,0,0,571.72,381.91Z"/><path class="cls-1" d="M721.61,351.79a23.11,23.11,0,0,1,8.61-4.44,17,17,0,0,1,7.66-.17,18.75,18.75,0,0,1,6.44,2.69,30.47,30.47,0,0,1,5,4.09,20.14,20.14,0,0,1,3.13,4.1,7.59,7.59,0,0,1,1,2.43c0,.59-.9,1.22-2.69,1.92a13.87,13.87,0,0,0-5.49,4.52q-2.79,3.49-4.44,10.45t.44,19.67a128.84,128.84,0,0,1,1.13,16.28A98.72,98.72,0,0,1,741,430.82a78.06,78.06,0,0,1-4.88,16.89,51,51,0,0,1-9,14.45,41.32,41.32,0,0,1-13.67,10,43.37,43.37,0,0,1-19.06,3.56q-6.62,0-10.71-2.52a16.18,16.18,0,0,1-6.09-6.44,19.08,19.08,0,0,1-2-8.79,32.42,32.42,0,0,1,1.48-9.66,35.79,35.79,0,0,1,4.18-9,25.91,25.91,0,0,1,6.18-6.79,7.84,7.84,0,0,1,6-1.56,20.46,20.46,0,0,1,5.83,1.91,35.2,35.2,0,0,1,6.27,4.53,38.26,38.26,0,0,0-9.31,7.22,27.27,27.27,0,0,0-5.14,7.66,16.22,16.22,0,0,0-1.48,6.62,4.86,4.86,0,0,0,1.83,4.09q1.74,1.22,4.79.17T703.5,458a21.71,21.71,0,0,0,5.4-9.14,68.7,68.7,0,0,0,2.78-12.8,129.53,129.53,0,0,0,1-14.53q.09-7.58-.26-14.54t-.87-12.79c-.35-3.89-.64-7-.87-9.32q-5.58,15.15-13.06,25.25a78,78,0,0,1-15.32,16A51.18,51.18,0,0,1,667,434.39a37.25,37.25,0,0,1-13.23,2q-10.28-.52-16.46-5.83a26.21,26.21,0,0,1-8.35-13.67,46.31,46.31,0,0,1-.61-18.71A77.34,77.34,0,0,1,634.91,377a72.4,72.4,0,0,1,8.45-13.49,43.56,43.56,0,0,1,10.7-9.75,35.28,35.28,0,0,1,12.8-5,37.43,37.43,0,0,1,14.71.52q6.27,1.57,9,6.27a23.63,23.63,0,0,1,3.22,10.44,36.35,36.35,0,0,1-.87,11.23,41.4,41.4,0,0,1-2.87,8.62,29.36,29.36,0,0,1-4.44,6,28.29,28.29,0,0,1-7.83,6,24,24,0,0,1-10.19,2.7q-5.57.25-11.49-3.92a59.89,59.89,0,0,0-1.22,7.31,28.48,28.48,0,0,0,0,6.27,9.63,9.63,0,0,0,5.23,7.22q4.51,2.53,10.79,1.22T684,411.85q6.78-5.58,12-17.06,2.09-4.35,4.7-10.36t5.83-12.19a108.06,108.06,0,0,1,7-11.57A41.46,41.46,0,0,1,721.61,351.79Zm-49.27,10.79a51.43,51.43,0,0,0-6.53,9.75,120.66,120.66,0,0,0-6.18,13.4c2.44,2.68,4.76,3.92,7,3.75a9.62,9.62,0,0,0,6-2.87,20.12,20.12,0,0,0,4.44-6.79,32.66,32.66,0,0,0,2.27-7.84,37.33,37.33,0,0,0,.43-9.31c-.29-1.92-.81-3.05-1.57-3.4a2.68,2.68,0,0,0-2.69.61A26.94,26.94,0,0,0,672.34,362.58Z"/><polygon class="cls-1" points="410.17 249.25 423.42 252 423.17 250.25 410.17 249.25"/><path class="cls-1" d="M451,250.75c.15,0-1.23-4.82-1.23-4.82l1.69-.48,1.41,4.93,3.28-.66-1.38-4.79,1.69-.48,1.41,4.93,3.28-.66-1.38-4.79,1.69-.48,1.41,4.92,3.27-.67-1.37-4.77,1.69-.48,1.4,4.9,3.28-.67-1.37-4.75,1.69-.48,1.4,4.88,3.27-.67-1.36-4.73,1.69-.48,1.39,4.85,3.27-.67-1.35-4.7,1.69-.48,1.38,4.82,3.27-.68-1.34-4.66,1.69-.48,1.37,4.78,3.27-.68-1.33-4.62,1.69-.48,1.36,4.74,3.26-.69-1.31-4.57,1.69-.48,1.34,4.69,3.27-.69-1.3-4.52,1.69-.48,1.33,4.64,3.27-.69-1.29-4.47,1.69-.48,1.31,4.58,3.27-.69-1.27-4.41,1.69-.48,1.3,4.52,3.26-.7-1.25-4.34,1.69-.48,1.28,4.46,3.26-.7-1.23-4.28,1.69-.48,1.26,4.39,2.87-.62-2.4-7.22-92.74,10.79h0L409.79,243,426,238c-5.74-1.08-15.5-3-19.52-4.17a34.88,34.88,0,0,1-8.67-3.35c-1.81-1-2.77-4.21-5.88-5.87-2.71-1.45-7.22.12-11.35-4.7-2.68-3.12-4.1-8.23-4.78-11.5h0c-.07-.38-.14-.77-.23-1.15-.21-1.21-.3-2-.3-2l-.17.27h0a20.5,20.5,0,0,0-10.38-11.8,21.68,21.68,0,0,0-16.94-.73,13.05,13.05,0,0,0-7.74,7.45,19.26,19.26,0,0,0-1.09,4.89c-.54,1.93-1.1,4.19-1.52,6.47-.91,5.08-1.95,8.88,0,10.65,2.28,2,12.19.64,12.19.64l.92.45a24.56,24.56,0,0,0,11.74,2.08l-.15.23s.3-.12.85-.3h0a19.13,19.13,0,0,0,4.24-.94,25.35,25.35,0,0,1,14.68,2.28c1.85.91,4.16,4.68,5.95,5.71,2.46,1.42,6.65,1.24,10.64,4.06,3.27,2.31,7.2,8.41,7.2,8.41s-6.44,7.62-12.14,9.76c-2.42.91-5.79-.11-10.79,1.14-4.23,1.06-6.53,4.55-8.84,5.13-2.95.74-10.18-.08-13-1.19a9.33,9.33,0,0,1-1.24-.61l.31.09s-4.93-5.69-7.26-6.19c-1.34-.29-4.58,1-6.18,1.67a18.94,18.94,0,0,0-8.17,2.17,19.69,19.69,0,0,0-9.52,12.33c-1.24,2.56-2.74,5.29-3.93,6.35-3.16,2.84-11.47,4.87-13.94,10.12a89.78,89.78,0,0,0-2.83,8.77s-.6,1.65.56,2.07c1.52.55,1.9-.62,1.9-.62s1.83-6.68,3.12-8.56c2.77-4,9.9-6.42,13.65-6.22,1.59.08,4.47,1.86,6.72,3.44a19.23,19.23,0,0,0,2.62,1.93l.64.5-.17-.22c4.76,2.73,11,3.46,17.92-.52a21.6,21.6,0,0,0,5.27-4.31h0l.12.43.67-1.36h0a19.83,19.83,0,0,0,3.66-6.95h0a27.45,27.45,0,0,1,2.16-3.33,25.05,25.05,0,0,1,8.32-5.92c2.51-.84,4.76.41,9.2-.75,5.75-1.5,8.88-4.06,11.53-4.94,9.8-3.28,17.6-1.4,35.51-4.79l10.71-3.69-8,3.93c15.06,1.93,86.38,14.31,86.38,14.31l2.56-4.47-67.52-12.94Zm-78.7-34.26a9,9,0,0,1-5.23,5.14c-4.33,1.82-10.32,1.54-15.25-.71-10.2-4.64-11.35-13.1-9-19.47a10.18,10.18,0,0,1,6.09-5.75,18.66,18.66,0,0,1,14.58.63C372.32,200.77,374.61,210,372.26,216.49Zm-9.85,55.65a18.22,18.22,0,0,1-8.77,11.74c-9.26,5.32-16.78,1.1-20.73-4.62a10.77,10.77,0,0,1-1.42-8.35,16.89,16.89,0,0,1,8.34-11.24A16.5,16.5,0,0,1,361,264.85,9.58,9.58,0,0,1,362.41,272.14ZM424.79,249a2,2,0,1,1,2-2A2,2,0,0,1,424.79,249Zm16.34-4.67L432.79,241l88.34-11.33Z"/><path class="cls-1" d="M262.31,524.24a2.07,2.07,0,0,1-.43-1.8,9.22,9.22,0,0,0,.21-1.91,5.79,5.79,0,0,0-.16-1.77,10.47,10.47,0,0,1-.27-1.78q0-3.48.22-7.19c.18-2.48.25-4.89.21-7.26,0-.68,0-1.36-.08-2s-.09-1.35-.1-2a18.38,18.38,0,0,1,0-2,9.17,9.17,0,0,1,.35-1.88,3.19,3.19,0,0,1,1.48-.45,14.17,14.17,0,0,1,2,0c.74,0,1.5.09,2.29.16s1.57.11,2.36.11h6.1a10.37,10.37,0,0,1,4.86,1.07,7.38,7.38,0,0,1,2.55,2.31,9.81,9.81,0,0,1,1.48,3.28,8.86,8.86,0,0,1,.11,3.63A7.12,7.12,0,0,1,284,508a2.93,2.93,0,0,1-.75.73c-.21.12-.32.4-.32.83a1.46,1.46,0,0,0,.27.83,4.53,4.53,0,0,0,.64.76q.38.34.75.72a2.52,2.52,0,0,1,.54.75,7.84,7.84,0,0,1,.62,2.07,10.9,10.9,0,0,1,.11,2.36,11.75,11.75,0,0,1-.41,2.37,5.36,5.36,0,0,1-1,2,5.57,5.57,0,0,1-1.13,1,11.39,11.39,0,0,1-1.69,1,17.27,17.27,0,0,1-1.94.81,9.78,9.78,0,0,1-1.85.46,21.07,21.07,0,0,1-3.6.24c-1.26,0-2.54-.08-3.87-.19l-4.06-.32C265,524.29,263.63,524.24,262.31,524.24Zm16-7.9a1.65,1.65,0,0,0-.43-1.24,2.81,2.81,0,0,1-.65-1.39,6.12,6.12,0,0,0-1.58-.62,11.33,11.33,0,0,0-2-.32,12.16,12.16,0,0,0-2.09,0,9.15,9.15,0,0,0-1.8.29,3.12,3.12,0,0,0-.51,1.32,9.45,9.45,0,0,0-.14,1.61,6.94,6.94,0,0,0,.19,1.64,5.79,5.79,0,0,0,.46,1.34,11.59,11.59,0,0,0,2.66.38,11.71,11.71,0,0,0,2.76-.22,5.24,5.24,0,0,0,2.18-1A2.4,2.4,0,0,0,278.32,516.34Zm-.65-10.53a3.26,3.26,0,0,0,.51-2.61,2.54,2.54,0,0,0-1.58-2,5.27,5.27,0,0,0-1.45-.29c-.61-.06-1.25-.08-1.91-.08s-1.29,0-1.88.05-1.05.05-1.37.05a2.29,2.29,0,0,0-.67,1.19,5.68,5.68,0,0,0-.16,1.63,11.16,11.16,0,0,0,.19,1.75,5.16,5.16,0,0,0,.43,1.4c.64.1,1.36.19,2.15.27a15.91,15.91,0,0,0,2.28.05,7.38,7.38,0,0,0,2-.38A2.6,2.6,0,0,0,277.67,505.81Z"/><path class="cls-1" d="M314.31,494.58a35.64,35.64,0,0,1,2.45,7.28c.55,2.53,1.21,5.08,2,7.66.21.71.44,1.39.67,2a20,20,0,0,1,.62,2.09,9.34,9.34,0,0,0,.78,2,9.55,9.55,0,0,1,.78,2,4.62,4.62,0,0,1,.1,1,3.91,3.91,0,0,0,.11.94,6.13,6.13,0,0,0,.43,1.13,9.49,9.49,0,0,1,.46,1.1,4.56,4.56,0,0,1,.21,1.16,2.8,2.8,0,0,1-.24,1.23,2,2,0,0,1-1.1.51,6.14,6.14,0,0,1-1.37,0l-1.56-.13a7.11,7.11,0,0,0-1.66,0,1.24,1.24,0,0,1-.92-.56,5.7,5.7,0,0,1-.48-1c-.14-.39-.3-.79-.48-1.18a1.88,1.88,0,0,0-1-.91,6.12,6.12,0,0,0-1.48-.19c-.8-.06-1.7-.08-2.68-.08s-1.92,0-2.8.05a7.6,7.6,0,0,0-1.8.22,1.72,1.72,0,0,0-1,.69,9.7,9.7,0,0,0-.51,1c-.14.36-.27.69-.4,1a1,1,0,0,1-.67.59l-1.75.22c-.59.07-1.17.11-1.74.13a9.69,9.69,0,0,1-1.64-.08,3.9,3.9,0,0,1-1.43-.48,3.4,3.4,0,0,1,.14-1.53q.24-.74.51-1.53c.39-1.29.85-2.78,1.37-4.46s1-3.28,1.48-4.78a27.53,27.53,0,0,0,.78-3.25c.19-1.13.43-2.23.72-3.31a13.58,13.58,0,0,1,.92-2.39,20.43,20.43,0,0,0,1.07-2.87c.14-.54.28-1.11.4-1.72s.27-1.19.43-1.72a5,5,0,0,1,.65-1.4,2.3,2.3,0,0,1,1.15-.86,8.89,8.89,0,0,1,1-.08q.69,0,1.56,0c.57,0,1.14,0,1.72.06s1.05,0,1.45,0a7.2,7.2,0,0,1,1.42.14Zm-5.48,10.75a18.42,18.42,0,0,1-.51,2c-.19.63-.39,1.26-.59,1.91s-.37,1.31-.53,2a11.45,11.45,0,0,0-.3,2.2A1.94,1.94,0,0,0,308,514a5.1,5.1,0,0,0,1.53.16A6.74,6.74,0,0,0,311,514a2.37,2.37,0,0,0,1.07-.51,2.2,2.2,0,0,0,.14-1.1,6.62,6.62,0,0,0-.3-1.16c-.14-.39-.3-.79-.48-1.18a7,7,0,0,1-.43-1.18,7.74,7.74,0,0,1-.16-1.08,5.36,5.36,0,0,0-.22-1.1,2.73,2.73,0,0,0-.46-.88,1.23,1.23,0,0,0-.94-.43Z"/><path class="cls-1" d="M354.61,515.8a7.86,7.86,0,0,0,.78,2l1,1.86a13.78,13.78,0,0,1,.88,2,7.19,7.19,0,0,1,.38,2.44,2.83,2.83,0,0,1-1.32.43,8.43,8.43,0,0,1-1.5,0c-.52,0-1.05-.1-1.58-.13a4.16,4.16,0,0,0-1.51.16,4.88,4.88,0,0,1-1.34-1.34,13.65,13.65,0,0,1-1-1.72c-.29-.61-.56-1.24-.81-1.88a14,14,0,0,0-.85-1.83,9,9,0,0,0-1.59-.4,7.49,7.49,0,0,0-1.91,0,2.33,2.33,0,0,0-.88,1.32,6.11,6.11,0,0,0-.16,1.69c0,.61,0,1.23.08,1.88a8.38,8.38,0,0,1-.11,1.88,6.63,6.63,0,0,1-1.61.4,14.67,14.67,0,0,1-2,.14,14.42,14.42,0,0,1-2-.14,6.51,6.51,0,0,1-1.61-.4,25.49,25.49,0,0,1-.25-3.9c0-1.37.07-2.79.14-4.24s.13-2.92.19-4.41a41.11,41.11,0,0,0-.08-4.32,2.17,2.17,0,0,0-.25-.78,1.66,1.66,0,0,1-.18-.78,7.52,7.52,0,0,1,.21-1.74,7.63,7.63,0,0,0,.22-1.75,14.86,14.86,0,0,0-.14-2c-.09-.67-.15-1.31-.19-1.94a9.49,9.49,0,0,1,.08-1.85,5.5,5.5,0,0,1,.68-1.88,3.58,3.58,0,0,1,1.53-.38q.93,0,2,0l2.28.11c.79,0,1.54.05,2.26.05,1.39,0,2.71.05,3.95.14a18.39,18.39,0,0,1,3.46.56,12.18,12.18,0,0,1,3,1.21,8.41,8.41,0,0,1,2.36,2.07,8.87,8.87,0,0,1,1.45,2.74c.29.93.68,2.06,1.18,3.38-.18,1.29-.37,2.61-.59,3.95a12.87,12.87,0,0,1-1.18,3.74q-.92.92-1.83,1.77A12.4,12.4,0,0,0,354.61,515.8Zm-3.76-6.34a2.74,2.74,0,0,0,.83-1.23,8.49,8.49,0,0,0,.43-1.72,7,7,0,0,0-.35-3.44,3.09,3.09,0,0,0-1.23-1.34,5.93,5.93,0,0,0-2-.76,10,10,0,0,0-2.42-.13,8.56,8.56,0,0,0-2.47.51,16.56,16.56,0,0,0-.22,2c0,.75-.05,1.52-.05,2.31s0,1.57.05,2.34a16.66,16.66,0,0,0,.22,2.07,5.81,5.81,0,0,0,1.72.45,10,10,0,0,0,2,.06,8.57,8.57,0,0,0,1.93-.38A4.57,4.57,0,0,0,350.85,509.46Z"/><path class="cls-1" d="M373.73,524.24a2.07,2.07,0,0,1-.43-1.8,8.62,8.62,0,0,0,.22-1.91,6.12,6.12,0,0,0-.16-1.77,8.8,8.8,0,0,1-.27-1.78q-.06-3.48.21-7.19c.18-2.48.25-4.89.22-7.26,0-.68,0-1.36-.08-2s-.09-1.35-.11-2a18.38,18.38,0,0,1,.05-2,9.9,9.9,0,0,1,.35-1.88,3.27,3.27,0,0,1,1.48-.45,14.31,14.31,0,0,1,2,0c.73,0,1.49.09,2.28.16s1.58.11,2.37.11h6.09a10.45,10.45,0,0,1,4.87,1.07,7.38,7.38,0,0,1,2.55,2.31,9.81,9.81,0,0,1,1.48,3.28,8.86,8.86,0,0,1,.1,3.63,7,7,0,0,1-1.5,3.3,3.29,3.29,0,0,1-.75.73c-.22.12-.33.4-.33.83a1.46,1.46,0,0,0,.27.83,4.6,4.6,0,0,0,.65.76q.38.34.75.72a2.52,2.52,0,0,1,.54.75,8.23,8.23,0,0,1,.62,2.07,10.3,10.3,0,0,1,.1,2.36,11.74,11.74,0,0,1-.4,2.37,5.54,5.54,0,0,1-1,2,5.31,5.31,0,0,1-1.13,1,10.9,10.9,0,0,1-1.69,1,16.38,16.38,0,0,1-1.93.81,9.69,9.69,0,0,1-1.86.46,20.89,20.89,0,0,1-3.59.24c-1.26,0-2.55-.08-3.87-.19l-4.06-.32C376.41,524.29,375.06,524.24,373.73,524.24Zm16-7.9a1.57,1.57,0,0,0-.43-1.24,2.81,2.81,0,0,1-.64-1.39,6.27,6.27,0,0,0-1.58-.62,11.33,11.33,0,0,0-2-.32,12.27,12.27,0,0,0-2.1,0,9.15,9.15,0,0,0-1.8.29,3.26,3.26,0,0,0-.51,1.32,9.46,9.46,0,0,0-.13,1.61,6.94,6.94,0,0,0,.19,1.64,5.82,5.82,0,0,0,.45,1.34,12.38,12.38,0,0,0,5.43.16,5.2,5.2,0,0,0,2.17-1A2.34,2.34,0,0,0,389.74,516.34Zm-.64-10.53a3.26,3.26,0,0,0,.51-2.61,2.57,2.57,0,0,0-1.58-2,5.35,5.35,0,0,0-1.46-.29c-.6-.06-1.24-.08-1.9-.08s-1.29,0-1.88.05-1.05.05-1.37.05a2.22,2.22,0,0,0-.67,1.19,6,6,0,0,0-.17,1.63,11.16,11.16,0,0,0,.19,1.75,5.54,5.54,0,0,0,.43,1.4c.65.1,1.36.19,2.15.27a16,16,0,0,0,2.28.05,7.39,7.39,0,0,0,2.05-.38A2.63,2.63,0,0,0,389.1,505.81Z"/><path class="cls-1" d="M432.29,494.42a2.86,2.86,0,0,1,.54,1.32,6.8,6.8,0,0,1,.11,1.77,12.61,12.61,0,0,1-.24,1.8,11,11,0,0,1-.41,1.45,38.2,38.2,0,0,1-4,.43c-1.34.07-2.85.09-4.54.05a14.37,14.37,0,0,1-2.09-.24,4,4,0,0,0-1.61,0,2.64,2.64,0,0,0-1.78,1.8,3.63,3.63,0,0,0,.43,3,6.81,6.81,0,0,0,2.2.32c.86,0,1.75,0,2.66-.08s1.81-.06,2.69,0a7.8,7.8,0,0,1,2.34.43,3.67,3.67,0,0,1,.4,1.35,10.06,10.06,0,0,1,0,1.56c0,.53-.08,1.05-.14,1.55s-.08.93-.08,1.29a5.31,5.31,0,0,1-2.52.62c-1,0-1.95,0-2.93-.05a22.58,22.58,0,0,0-2.85,0,4,4,0,0,0-2.23.72,4.28,4.28,0,0,0-.08,1.72q.13.91.3,1.77c.46.22,1,.43,1.56.65a4.94,4.94,0,0,0,1.93.27,3.46,3.46,0,0,0,.86-.24,3.15,3.15,0,0,1,.91-.25,11.08,11.08,0,0,1,2.2.25,12.19,12.19,0,0,0,2.42.24,21.68,21.68,0,0,0,2.53-.22,1.56,1.56,0,0,1,1.61.65,2,2,0,0,1,.46,1.1,7.3,7.3,0,0,1,0,1.48c-.06.53-.13,1.09-.22,1.66s-.17,1.13-.24,1.67a2.52,2.52,0,0,1-1.16.45,5.29,5.29,0,0,1-1.26,0c-.43,0-.87-.09-1.31-.16a8.6,8.6,0,0,0-1.32-.11,8,8,0,0,0-1.32.24,4.66,4.66,0,0,1-1.31.19,21.73,21.73,0,0,1-3.9-.24,19.55,19.55,0,0,0-3.95-.19c-.57,0-1.14.1-1.72.19s-1.13.15-1.69.19a5.87,5.87,0,0,1-1.58-.11,3.2,3.2,0,0,1-1.4-.7c.14-2.4.2-4.81.16-7.25s-.07-4.87-.11-7.31,0-4.88,0-7.33.15-4.88.4-7.28a1.31,1.31,0,0,1,.7-.64c1.72.1,3.44.15,5.16.13l5.15-.08c1.72,0,3.44-.05,5.16-.05S430.61,494.28,432.29,494.42Z"/><path class="cls-1" d="M462.49,494.58a35.61,35.61,0,0,1,2.44,7.28q.84,3.79,2,7.66c.22.71.44,1.39.68,2a20,20,0,0,1,.61,2.09,9.34,9.34,0,0,0,.78,2,9.55,9.55,0,0,1,.78,2,4.62,4.62,0,0,1,.11,1,3.47,3.47,0,0,0,.11.94,5.49,5.49,0,0,0,.43,1.13,8,8,0,0,1,.45,1.1,4.18,4.18,0,0,1,.22,1.16,3,3,0,0,1-.24,1.23,2,2,0,0,1-1.11.51,6.13,6.13,0,0,1-1.37,0l-1.55-.13a7.2,7.2,0,0,0-1.67,0,1.22,1.22,0,0,1-.91-.56,6.44,6.44,0,0,1-.49-1c-.14-.39-.3-.79-.48-1.18a1.85,1.85,0,0,0-1-.91,6.09,6.09,0,0,0-1.47-.19c-.81-.06-1.71-.08-2.69-.08s-1.92,0-2.79.05a7.6,7.6,0,0,0-1.8.22,1.69,1.69,0,0,0-1,.69,6.94,6.94,0,0,0-.51,1c-.14.36-.28.69-.4,1a1,1,0,0,1-.68.59l-1.74.22c-.59.07-1.18.11-1.75.13a9.75,9.75,0,0,1-1.64-.08,3.79,3.79,0,0,1-1.42-.48,3.4,3.4,0,0,1,.13-1.53l.51-1.53c.4-1.29.85-2.78,1.37-4.46s1-3.28,1.48-4.78a27.53,27.53,0,0,0,.78-3.25c.2-1.13.44-2.23.73-3.31a13.45,13.45,0,0,1,.91-2.39,18.21,18.21,0,0,0,1.07-2.87c.15-.54.28-1.11.41-1.72s.27-1.19.43-1.72a5,5,0,0,1,.64-1.4,2.29,2.29,0,0,1,1.16-.86,8.63,8.63,0,0,1,1-.08q.7,0,1.56,0c.57,0,1.15,0,1.72.06s1.06,0,1.45,0a7.3,7.3,0,0,1,1.43.14ZM457,505.33q-.22,1.07-.51,2c-.2.63-.4,1.26-.59,1.91s-.38,1.31-.54,2a12.3,12.3,0,0,0-.3,2.2,2,2,0,0,0,1.05.56,5.17,5.17,0,0,0,1.53.16,6.67,6.67,0,0,0,1.56-.21,2.47,2.47,0,0,0,1.08-.51,2.19,2.19,0,0,0,.13-1.1,5.23,5.23,0,0,0-.3-1.16c-.14-.39-.3-.79-.48-1.18a8,8,0,0,1-.43-1.18,9.58,9.58,0,0,1-.16-1.08,6.13,6.13,0,0,0-.21-1.1,2.94,2.94,0,0,0-.46-.88,1.25,1.25,0,0,0-.94-.43Z"/><path class="cls-1" d="M502.78,515.8a7.86,7.86,0,0,0,.78,2l1,1.86a13.82,13.82,0,0,1,.89,2,7.19,7.19,0,0,1,.38,2.44,2.9,2.9,0,0,1-1.32.43,8.54,8.54,0,0,1-1.51,0c-.52,0-1-.1-1.58-.13a4.08,4.08,0,0,0-1.5.16,4.92,4.92,0,0,1-1.35-1.34,13.65,13.65,0,0,1-1-1.72c-.28-.61-.55-1.24-.8-1.88a14,14,0,0,0-.86-1.83,8.81,8.81,0,0,0-1.59-.4,7.41,7.41,0,0,0-1.9,0,2.34,2.34,0,0,0-.89,1.32,6.11,6.11,0,0,0-.16,1.69c0,.61,0,1.23.08,1.88a7.83,7.83,0,0,1-.11,1.88,6.51,6.51,0,0,1-1.61.4,14.52,14.52,0,0,1-2,.14,14.67,14.67,0,0,1-2-.14,6.63,6.63,0,0,1-1.61-.4,24.32,24.32,0,0,1-.24-3.9c0-1.37.06-2.79.13-4.24s.14-2.92.19-4.41a38.57,38.57,0,0,0-.08-4.32,2.37,2.37,0,0,0-.24-.78,1.55,1.55,0,0,1-.19-.78,7.52,7.52,0,0,1,.21-1.74,7.11,7.11,0,0,0,.22-1.75,16.68,16.68,0,0,0-.13-2c-.09-.67-.16-1.31-.19-1.94a8.77,8.77,0,0,1,.08-1.85,5.47,5.47,0,0,1,.67-1.88,3.58,3.58,0,0,1,1.53-.38q.94,0,2,0l2.29.11c.78,0,1.54.05,2.25.05,1.4,0,2.72.05,3.95.14a18.5,18.5,0,0,1,3.47.56,12.1,12.1,0,0,1,2.95,1.21,8.27,8.27,0,0,1,2.36,2.07,8.7,8.7,0,0,1,1.46,2.74c.28.93.68,2.06,1.18,3.38-.18,1.29-.38,2.61-.59,3.95a13.18,13.18,0,0,1-1.18,3.74q-.91.92-1.83,1.77A12.45,12.45,0,0,0,502.78,515.8ZM499,509.46a2.66,2.66,0,0,0,.83-1.23,8.49,8.49,0,0,0,.43-1.72,7.2,7.2,0,0,0-.34-3.44,3.18,3.18,0,0,0-1.24-1.34,5.85,5.85,0,0,0-2-.76,10,10,0,0,0-2.42-.13,8.56,8.56,0,0,0-2.47.51,16.67,16.67,0,0,0-.21,2q-.06,1.13-.06,2.31t.06,2.34a16.79,16.79,0,0,0,.21,2.07,5.89,5.89,0,0,0,1.72.45,10,10,0,0,0,2,.06,8.66,8.66,0,0,0,1.94-.38A4.42,4.42,0,0,0,499,509.46Z"/><path class="cls-1" d="M528.89,495c.15,1.72.22,3.61.22,5.66s0,4.19-.08,6.37-.11,4.36-.16,6.53,0,4.23,0,6.2a6.78,6.78,0,0,0,.14,1.4,8,8,0,0,1,.16,1.26,3.14,3.14,0,0,1-.16,1.16,2.36,2.36,0,0,1-.79,1c-.39,0-.84,0-1.35.08s-1,.09-1.6.11-1.12,0-1.68,0a8.11,8.11,0,0,1-1.54-.19,10.6,10.6,0,0,1-.59-2.87c-.07-1-.1-2.07-.08-3.15s.06-2.17.13-3.3.09-2.27.06-3.41c0-1.33-.08-2.71-.14-4.14s-.08-2.89-.08-4.38,0-2.95.16-4.4a38.22,38.22,0,0,1,.54-4.17,14.47,14.47,0,0,1,3.47-.35A10.08,10.08,0,0,1,528.89,495Z"/><path class="cls-1" d="M560.54,494.58a35.61,35.61,0,0,1,2.44,7.28q.84,3.79,2,7.66c.22.71.44,1.39.67,2a17.84,17.84,0,0,1,.62,2.09,9.34,9.34,0,0,0,.78,2,9.55,9.55,0,0,1,.78,2,4.62,4.62,0,0,1,.11,1,3.93,3.93,0,0,0,.1.94,6.13,6.13,0,0,0,.43,1.13,8,8,0,0,1,.46,1.1,4.18,4.18,0,0,1,.22,1.16,3,3,0,0,1-.25,1.23,2,2,0,0,1-1.1.51,6.14,6.14,0,0,1-1.37,0l-1.56-.13a7.12,7.12,0,0,0-1.66,0,1.2,1.2,0,0,1-.91-.56,5.7,5.7,0,0,1-.49-1c-.14-.39-.3-.79-.48-1.18a1.85,1.85,0,0,0-1-.91,6.12,6.12,0,0,0-1.48-.19c-.8-.06-1.7-.08-2.68-.08s-1.92,0-2.8.05a7.76,7.76,0,0,0-1.8.22,1.66,1.66,0,0,0-1,.69,6.94,6.94,0,0,0-.51,1c-.15.36-.28.69-.41,1a1,1,0,0,1-.67.59l-1.74.22c-.6.07-1.18.11-1.75.13a9.75,9.75,0,0,1-1.64-.08,3.79,3.79,0,0,1-1.42-.48,3.4,3.4,0,0,1,.13-1.53q.24-.74.51-1.53c.4-1.29.85-2.78,1.37-4.46s1-3.28,1.48-4.78a27.53,27.53,0,0,0,.78-3.25c.19-1.13.44-2.23.72-3.31a14.42,14.42,0,0,1,.92-2.39,19.26,19.26,0,0,0,1.07-2.87c.14-.54.28-1.11.4-1.72s.27-1.19.43-1.72a5.33,5.33,0,0,1,.65-1.4,2.3,2.3,0,0,1,1.15-.86,8.89,8.89,0,0,1,1-.08q.7,0,1.56,0c.57,0,1.14,0,1.72.06s1,0,1.45,0a7.2,7.2,0,0,1,1.42.14Zm-5.48,10.75q-.22,1.07-.51,2c-.2.63-.4,1.26-.6,1.91s-.37,1.31-.53,2a12.3,12.3,0,0,0-.3,2.2,2,2,0,0,0,1,.56,5.1,5.1,0,0,0,1.53.16,6.67,6.67,0,0,0,1.56-.21,2.37,2.37,0,0,0,1.07-.51,2.09,2.09,0,0,0,.14-1.1,5.84,5.84,0,0,0-.3-1.16c-.14-.39-.3-.79-.48-1.18a8,8,0,0,1-.43-1.18,7.74,7.74,0,0,1-.16-1.08,5.36,5.36,0,0,0-.22-1.1,2.71,2.71,0,0,0-.45-.88,1.25,1.25,0,0,0-.94-.43Z"/></svg>